HIERARCHY
ROOT Hips
{
	OFFSET 0.00000 0.00000 0.00000
	CHANNELS 6 Xposition Yposition Zposition Zrotation Yrotation Xrotation 
	JOINT LHipJoint
	{
		OFFSET 0 0 0
		CHANNELS 3 Zrotation Yrotation Xrotation
		JOINT LeftUpLeg
		{
			OFFSET 1.62329 -1.80800 0.67318
			CHANNELS 3 Zrotation Yrotation Xrotation
			JOINT LeftLeg
			{
				OFFSET 2.57139 -7.06484 0.00000
				CHANNELS 3 Zrotation Yrotation Xrotation
				JOINT LeftFoot
				{
					OFFSET 2.52017 -6.92413 0.00000
					CHANNELS 3 Zrotation Yrotation Xrotation
					JOINT LeftToeBase
					{
						OFFSET 0.23295 -0.64001 2.10214
						CHANNELS 3 Zrotation Yrotation Xrotation
						End Site
						{
							OFFSET 0.00000 -0.00000 1.10139
						}
					}
				}
			}
		}
	}
	JOINT RHipJoint
	{
		OFFSET 0 0 0
		CHANNELS 3 Zrotation Yrotation Xrotation
		JOINT RightUpLeg
		{
			OFFSET -1.48061 -1.80800 0.67318
			CHANNELS 3 Zrotation Yrotation Xrotation
			JOINT RightLeg
			{
				OFFSET -2.63258 -7.23296 0.00000
				CHANNELS 3 Zrotation Yrotation Xrotation
				JOINT RightFoot
				{
					OFFSET -2.54779 -7.00000 0.00000
					CHANNELS 3 Zrotation Yrotation Xrotation
					JOINT RightToeBase
					{
						OFFSET -0.23067 -0.63376 2.12161
						CHANNELS 3 Zrotation Yrotation Xrotation
						End Site
						{
							OFFSET -0.00000 -0.00000 1.11000
						}
					}
				}
			}
		}
	}
	JOINT LowerBack
	{
		OFFSET 0 0 0
		CHANNELS 3 Zrotation Yrotation Xrotation
		JOINT Spine
		{
			OFFSET -0.02108 2.07573 -0.16981
			CHANNELS 3 Zrotation Yrotation Xrotation
			JOINT Spine1
			{
				OFFSET 0.05070 2.08439 -0.03141
				CHANNELS 3 Zrotation Yrotation Xrotation
				JOINT Neck
				{
					OFFSET 0 0 0
					CHANNELS 3 Zrotation Yrotation Xrotation
					JOINT Neck1
					{
						OFFSET -0.10731 1.60408 0.31370
						CHANNELS 3 Zrotation Yrotation Xrotation
						JOINT Head
						{
							OFFSET 0.08411 1.65679 -0.30822
							CHANNELS 3 Zrotation Yrotation Xrotation
							End Site
							{
								OFFSET 0.03911 1.69149 -0.14146
							}
						}
					}
				}
				JOINT LeftShoulder
				{
					OFFSET 0 0 0
					CHANNELS 3 Zrotation Yrotation Xrotation
					JOINT LeftArm
					{
						OFFSET 3.52315 0.73219 -0.54694
						CHANNELS 3 Zrotation Yrotation Xrotation
						JOINT LeftForeArm
						{
							OFFSET 5.32462 -0.00000 -0.00000
							CHANNELS 3 Zrotation Yrotation Xrotation
							JOINT LeftHand
							{
								OFFSET 3.48402 -0.00000 -0.00000
								CHANNELS 3 Zrotation Yrotation Xrotation
								JOINT LeftFingerBase
								{
									OFFSET 0 0 0
									CHANNELS 3 Zrotation Yrotation Xrotation
									JOINT LeftHandIndex1
									{
										OFFSET 0.57248 -0.00000 -0.00000
										CHANNELS 3 Zrotation Yrotation Xrotation
										End Site
										{
											OFFSET 0.46154 -0.00000 -0.00000
										}
									}
								}
								JOINT LThumb
								{
									OFFSET 0 0 0
									CHANNELS 3 Zrotation Yrotation Xrotation
									End Site
									{
										OFFSET 0.46859 -0.00000 0.46859
									}
								}
							}
						}
					}
				}
				JOINT RightShoulder
				{
					OFFSET 0 0 0
					CHANNELS 3 Zrotation Yrotation Xrotation
					JOINT RightArm
					{
						OFFSET -3.41766 0.93592 -0.10019
						CHANNELS 3 Zrotation Yrotation Xrotation
						JOINT RightForeArm
						{
							OFFSET -5.33589 -0.00000 -0.00000
							CHANNELS 3 Zrotation Yrotation Xrotation
							JOINT RightHand
							{
								OFFSET -3.64134 -0.00000 -0.00000
								CHANNELS 3 Zrotation Yrotation Xrotation
								JOINT RightFingerBase
								{
									OFFSET 0 0 0
									CHANNELS 3 Zrotation Yrotation Xrotation
									JOINT RightHandIndex1
									{
										OFFSET -0.73481 -0.00000 -0.00000
										CHANNELS 3 Zrotation Yrotation Xrotation
										End Site
										{
											OFFSET -0.59242 -0.00000 -0.00000
										}
									}
								}
								JOINT RThumb
								{
									OFFSET 0 0 0
									CHANNELS 3 Zrotation Yrotation Xrotation
									End Site
									{
										OFFSET -0.60147 -0.00000 0.60147
									}
								}
							}
						}
					}
				}
			}
		}
	}
}
MOTION
Frames: 14
Frame Time: .0083333
1.7773 17.4268 3.0058 1.4772 -12.3405 -1.9891 0.0000 0.0000 0.0000 -17.7526 -11.4101 -18.1366 1.4536 7.6208 21.5681 -0.1851 -7.8968 0.6189 0.8342 -5.8264 -16.2816 0.0000 0.0000 0.0000 15.5049 3.3436 -2.6788 -4.5778 -12.8919 38.9653 0.1715 18.4120 -11.3407 -0.1610 -2.5851 7.1256 3.1016 1.0344 10.5185 6.6289 2.0655 0.9085 4.9283 1.0146 -5.1031 -7.7936 -2.9050 -27.1373 4.3700 -2.0812 20.8683 2.5377 -0.9972 11.3938 -0.0000 -0.0000 0.0000 -10.9756 -6.3321 -45.9467 14.2941 -23.1536 -2.9428 -0.0000 -0.0000 4.2270 32.1078 33.3140 19.0157 -7.1250 0.0000 -0.0000 -0.3516 67.7878 -0.1926 -0.0000 -0.0000 0.0000 11.4069 5.7219 -51.9201 -15.7115 25.1280 -3.5226 0.0000 -0.0000 -3.3229 -42.1221 -5.5171 4.9688 7.1250 -0.0000 -0.0000 -13.0751 -37.1098 -2.5924
1.8306 17.4371 3.0633 1.2153 -12.5069 -2.2191 0.0000 0.0000 0.0000 -17.7910 -11.0549 -17.8033 1.4687 7.6585 21.6815 -0.1844 -7.8360 0.7913 0.6987 -5.3432 -14.8900 0.0000 0.0000 0.0000 15.4736 3.2425 -2.5903 -4.6747 -13.0078 39.3977 0.2238 18.2704 -10.7043 -0.1416 -2.4251 6.6820 3.6679 0.9897 10.8151 6.7119 2.0874 1.0325 4.6898 1.0117 -5.1232 -7.8474 -2.8864 -27.1054 4.3663 -2.0349 20.8587 2.5530 -0.9815 11.3818 -0.0000 0.0000 0.0000 -11.0536 -6.4452 -45.7933 14.3862 -23.2841 -2.9791 -0.0000 -0.0000 4.4237 32.2888 33.3193 19.1421 -7.1250 0.0000 -0.0000 -0.0968 67.8480 -0.0531 -0.0000 0.0000 0.0000 11.7249 5.7102 -51.7010 -15.8514 25.3188 -3.5822 0.0000 -0.0000 -3.7093 -42.0767 -5.3725 4.8319 7.1250 -0.0000 -0.0000 -13.0138 -36.9175 -2.6425
1.8762 17.4585 3.1212 1.2474 -12.5824 -2.4317 0.0000 0.0000 0.0000 -18.1545 -10.6325 -17.5159 1.4700 7.6619 21.6917 -0.1941 -7.9500 1.1858 0.5861 -4.9018 -13.6287 0.0000 0.0000 0.0000 15.1577 3.1540 -2.6415 -4.7796 -13.1312 39.8616 0.2184 17.7824 -10.3482 -0.0714 -1.7244 4.7446 3.8811 0.9608 11.0056 6.6950 2.0791 1.1404 4.5499 1.0018 -5.1071 -7.8310 -2.8903 -27.1403 4.3523 -2.0409 20.8993 2.5447 -0.9850 11.4036 0.0000 0.0000 0.0000 -11.0565 -6.4984 -45.1282 14.5209 -23.4744 -3.0325 -0.0000 -0.0000 4.0618 32.5033 33.1875 19.2270 -7.1250 0.0000 -0.0000 0.2876 67.7749 0.1575 0.0000 0.0000 0.0000 12.1139 5.6867 -51.6923 -15.9650 25.4732 -3.6309 0.0000 -0.0000 -3.7431 -42.0449 -5.4011 4.8520 7.1250 -0.0000 -0.0000 -12.9912 -36.9525 -2.6263
1.9125 17.4735 3.1714 1.3225 -12.6190 -2.4915 0.0000 0.0000 0.0000 -18.5127 -10.2336 -17.4059 1.4593 7.6351 21.6112 -0.2118 -8.2334 1.6226 0.5035 -4.5489 -12.6263 0.0000 0.0000 0.0000 14.8421 3.1671 -2.8163 -4.8882 -13.2568 40.3375 0.2358 17.5320 -9.9491 -0.0332 -1.1763 3.2341 3.8629 0.9351 11.0531 6.7299 2.0437 1.1914 4.6026 0.9849 -5.0799 -7.8133 -2.8651 -26.9771 4.2658 -2.0028 20.8438 2.5149 -0.9788 11.3494 -0.0000 0.0000 0.0000 -11.1218 -6.5034 -44.5279 14.6816 -23.7007 -3.0968 -0.0000 -0.0000 3.8235 32.1867 32.8957 18.8725 -7.1250 0.0000 -0.0000 0.0065 67.3700 0.0035 -0.0000 0.0000 0.0000 12.4222 5.6811 -51.6264 -16.0911 25.6440 -3.6853 0.0000 -0.0000 -3.7484 -41.9288 -5.3736 4.8080 7.1250 -0.0000 -0.0000 -12.8880 -36.9082 -2.6188
1.9484 17.4803 3.2212 1.4203 -12.6418 -2.4881 0.0000 0.0000 0.0000 -18.8848 -9.8792 -17.3565 1.4440 7.5965 21.4951 -0.2260 -8.4536 2.0270 0.5179 -4.6124 -12.8064 0.0000 0.0000 0.0000 14.4947 3.2468 -3.0143 -5.0031 -13.3873 40.8363 0.2950 17.5972 -9.3600 -0.0285 -1.0889 2.9934 3.8275 0.9062 10.9987 6.7724 1.9965 1.2154 4.6758 0.9629 -5.0243 -7.6833 -2.7965 -26.7199 4.0572 -1.9241 20.7671 2.4278 -0.9619 11.2650 -0.0000 -0.0000 0.0000 -11.2205 -6.6448 -44.4361 14.8123 -23.8840 -3.1496 -0.0000 -0.0000 4.2743 31.6416 32.7133 18.4188 -7.1250 0.0000 -0.0000 -0.6508 67.0122 -0.3449 -0.0000 -0.0000 0.0000 12.6602 5.6905 -51.4854 -16.2081 25.8020 -3.7361 0.0000 -0.0000 -3.8361 -41.9513 -5.3556 4.7957 7.1250 -0.0000 -0.0000 -12.9044 -36.8863 -2.6294
1.9835 17.4857 3.2745 1.5245 -12.6810 -2.5304 0.0000 0.0000 0.0000 -19.2924 -9.4967 -17.2648 1.4420 7.5916 21.4803 -0.2369 -8.6396 2.2081 0.6423 -5.1272 -14.2716 0.0000 0.0000 0.0000 14.1373 3.2750 -3.1095 -5.1106 -13.5072 41.2982 0.3525 17.6831 -8.7910 -0.0293 -1.1044 3.0361 3.8235 0.9089 10.9401 6.8032 1.9900 1.2865 4.7117 0.9602 -4.9174 -7.6843 -2.7840 -26.7239 3.9870 -1.8877 20.8107 2.4086 -0.9556 11.2792 0.0000 0.0000 0.0000 -11.3546 -6.8629 -44.1453 15.0153 -24.1675 -3.2322 -0.0000 -0.0000 4.3966 31.7164 32.7319 18.4777 -7.1250 0.0000 -0.0000 -0.5577 67.0544 -0.2962 0.0000 0.0000 0.0000 12.8799 5.6886 -51.4743 -16.3012 25.9274 -3.7767 0.0000 -0.0000 -3.7261 -42.0659 -5.3971 4.8520 7.1250 -0.0000 -0.0000 -13.0086 -36.9490 -2.6311
2.0194 17.4904 3.3263 1.6643 -12.7236 -2.5949 0.0000 0.0000 0.0000 -19.7169 -9.2545 -17.1290 1.4467 7.6034 21.5159 -0.2424 -8.7528 2.1042 0.7422 -5.5033 -15.3497 0.0000 0.0000 0.0000 13.7270 3.2208 -3.2163 -5.2160 -13.6230 41.7478 0.4015 17.7315 -8.2679 -0.0238 -0.9966 2.7395 3.8437 0.9178 10.9827 6.7830 2.0053 1.3008 4.6759 0.9670 -4.9255 -7.7700 -2.8027 -26.7479 4.0345 -1.8929 20.9612 2.4416 -0.9608 11.3424 0.0000 0.0000 0.0000 -11.4374 -7.0125 -43.4956 15.2532 -24.4977 -3.3302 -0.0000 -0.0000 4.1556 31.9287 32.5947 18.5559 -7.1250 0.0000 -0.0000 -0.1840 66.9729 -0.0974 0.0000 0.0000 0.0000 13.1509 5.5505 -51.1465 -16.4346 26.1063 -3.8352 0.0000 -0.0000 -3.7937 -42.1830 -5.5537 5.0121 7.1250 -0.0000 -0.0000 -13.1329 -37.1622 -2.5871
2.0562 17.4972 3.3746 1.7310 -12.7010 -2.5868 0.0000 0.0000 0.0000 -20.0126 -9.1492 -17.0753 1.4569 7.6290 21.5927 -0.2446 -8.7886 2.1347 0.6918 -5.3172 -14.8155 0.0000 0.0000 0.0000 13.3784 3.1438 -3.4069 -5.3170 -13.7321 42.1747 0.4652 17.8191 -7.5916 -0.0230 -0.9792 2.6915 3.8926 0.8970 10.9814 6.8137 1.9852 1.2950 4.6843 0.9563 -4.9294 -7.7168 -2.7686 -26.6389 3.9303 -1.8484 20.9800 2.4018 -0.9517 11.3253 -0.0000 0.0000 0.0000 -11.5123 -7.2199 -43.2305 15.4221 -24.7308 -3.4006 -0.0000 -0.0000 4.4497 31.8837 32.2955 18.3844 -7.1250 0.0000 -0.0000 -0.0801 66.6430 -0.0418 -0.0000 0.0000 0.0000 13.3015 5.4279 -50.8466 -16.5304 26.2346 -3.8775 0.0000 -0.0000 -3.7658 -42.2096 -5.6339 5.0886 7.1250 -0.0000 -0.0000 -13.1683 -37.2691 -2.5592
2.0926 17.5034 3.4193 1.7408 -12.6914 -2.5558 0.0000 0.0000 0.0000 -20.2239 -8.9826 -17.0968 1.4711 7.6646 21.6999 -0.2529 -8.9192 2.3219 0.6276 -5.0691 -14.1058 0.0000 0.0000 0.0000 13.1150 3.1566 -3.5845 -5.4146 -13.8360 42.5844 0.5086 17.8071 -7.0320 -0.0181 -0.8677 2.3849 3.9632 0.8512 11.0139 6.8710 1.9403 1.2707 4.7130 0.9329 -4.9706 -7.5817 -2.6819 -26.3753 3.7532 -1.7540 20.8298 2.3275 -0.9215 11.2116 -0.0000 -0.0000 0.0000 -11.6070 -7.2907 -42.7539 15.6355 -25.0239 -3.4903 -0.0000 -0.0000 4.5547 31.9347 32.2256 18.3853 -7.1250 0.0000 -0.0000 0.0282 66.5840 0.0147 -0.0000 -0.0000 0.0000 13.3584 5.3716 -50.5760 -16.5649 26.2805 -3.8927 0.0000 -0.0000 -3.6376 -42.0657 -5.5340 4.9740 7.1250 -0.0000 -0.0000 -13.0296 -37.1277 -2.5772
2.1276 17.5087 3.4642 1.6797 -12.8006 -2.5559 0.0000 0.0000 0.0000 -20.3359 -8.7838 -17.0581 1.4853 7.6999 21.8061 -0.2612 -9.0666 2.3236 0.6039 -4.9743 -13.8353 0.0000 0.0000 0.0000 12.9635 3.3284 -3.6819 -5.5017 -13.9274 42.9474 0.5569 17.7386 -6.3147 -0.0201 -0.9162 2.5183 4.0968 0.8392 11.1112 6.9636 1.9561 1.2316 4.7347 0.9382 -5.0666 -7.7297 -2.6578 -26.1544 3.8270 -1.7011 20.8035 2.3878 -0.9014 11.1608 -0.0000 0.0000 0.0000 -11.7771 -7.2264 -41.7900 15.9339 -25.4310 -3.6175 -0.0000 -0.0000 4.1219 32.2930 32.1870 18.6062 -7.1250 0.0000 -0.0000 0.5448 66.6495 0.2843 -0.0000 0.0000 0.0000 13.4071 5.3207 -50.2691 -16.5927 26.3177 -3.9050 0.0000 -0.0000 -3.5105 -41.8961 -5.4249 4.8479 7.1250 -0.0000 -0.0000 -12.8681 -36.9727 -2.5939
2.1608 17.5116 3.5082 1.7545 -12.9451 -2.5969 0.0000 0.0000 0.0000 -20.5677 -8.6573 -16.9822 1.4964 7.7271 21.8882 -0.2637 -9.1219 2.2152 0.5242 -4.6398 -12.8839 0.0000 0.0000 0.0000 12.6633 3.4804 -3.7770 -5.5835 -14.0122 43.2864 0.6047 17.4617 -5.2832 -0.0381 -1.2600 3.4645 4.0745 0.8517 11.1584 7.0164 1.9753 1.2437 4.8012 0.9484 -5.0841 -7.7981 -2.6189 -26.0971 3.8420 -1.6307 20.9022 2.4179 -0.8754 11.1838 -0.0000 -0.0000 0.0000 -11.8924 -7.2413 -41.1423 16.1665 -25.7458 -3.7180 -0.0000 -0.0000 3.9677 32.6575 32.3928 18.9507 -7.1250 0.0000 -0.0000 0.9459 66.9784 0.5006 -0.0000 -0.0000 0.0000 13.4687 5.3668 -50.1393 -16.6188 26.3525 -3.9166 0.0000 -0.0000 -3.3773 -41.8052 -5.3372 4.7550 7.1250 -0.0000 -0.0000 -12.7773 -36.8518 -2.6134
2.1936 17.5145 3.5508 1.8733 -13.0651 -2.6037 0.0000 0.0000 0.0000 -20.8166 -8.6632 -16.9404 1.5077 7.7551 21.9727 -0.2565 -9.0030 2.1411 0.3833 -3.9757 -11.0084 0.0000 0.0000 0.0000 12.2896 3.5221 -3.9072 -5.6606 -14.0912 43.6040 0.6250 16.7528 -3.9378 -0.1108 -2.1466 5.9109 4.0158 0.8748 11.0932 7.0435 1.9876 1.3181 4.8612 0.9561 -4.9726 -7.6638 -2.5614 -26.2116 3.6371 -1.5393 21.0179 2.3368 -0.8513 11.2392 0.0000 0.0000 0.0000 -11.8785 -7.4474 -41.0321 16.3126 -25.9427 -3.7817 -0.0000 -0.0000 4.2459 32.4499 32.7821 18.9972 -7.1250 0.0000 -0.0000 0.4424 67.3296 0.2377 0.0000 0.0000 0.0000 13.4897 5.3972 -50.1180 -16.6182 26.3517 -3.9163 0.0000 -0.0000 -3.3407 -41.7830 -5.2586 4.6819 7.1250 -0.0000 -0.0000 -12.7466 -36.7479 -2.6400
2.2240 17.5183 3.5932 1.9490 -13.1391 -2.5907 0.0000 0.0000 0.0000 -21.0220 -8.6458 -16.8905 1.5164 7.7764 22.0371 -0.2562 -9.0085 2.0486 0.2996 -3.5193 -9.7280 0.0000 0.0000 0.0000 11.9636 3.5255 -4.0534 -5.7394 -14.1710 43.9268 0.6701 16.8663 -3.3273 -0.0904 -1.9392 5.3376 3.9708 0.8547 11.0679 7.0922 1.9535 1.3404 4.9445 0.9406 -4.9363 -7.6886 -2.5440 -26.3959 3.6233 -1.4887 21.2840 2.3484 -0.8356 11.3702 -0.0000 0.0000 0.0000 -11.8762 -7.5241 -40.8228 16.5002 -26.1942 -3.8641 -0.0000 -0.0000 4.4928 31.9315 32.9961 18.7466 -7.1250 0.0000 -0.0000 -0.4113 67.3987 -0.2216 -0.0000 0.0000 0.0000 13.4828 5.4108 -49.7626 -16.6435 26.3854 -3.9276 0.0000 -0.0000 -3.6364 -41.8367 -5.4229 4.8361 7.1250 -0.0000 -0.0000 -12.8171 -36.9657 -2.5854
2.2526 17.5241 3.6327 1.8897 -13.2720 -2.5718 0.0000 0.0000 0.0000 -21.0965 -8.3785 -16.8704 1.5200 7.7852 22.0635 -0.2674 -9.2193 1.9586 0.2476 -3.2021 -8.8419 0.0000 0.0000 0.0000 11.8288 3.6746 -4.1560 -5.8193 -14.2509 44.2521 0.6882 16.6738 -2.6523 -0.0881 -1.9142 5.2685 4.0580 0.8709 11.0343 7.1746 1.9821 1.3825 4.9791 0.9535 -4.8750 -7.8121 -2.5898 -26.4301 3.6706 -1.5147 21.3850 2.3833 -0.8530 11.4182 -0.0000 0.0000 0.0000 -11.8241 -7.6144 -40.3634 16.7295 -26.4998 -3.9659 -0.0000 -0.0000 4.3589 31.7845 32.8143 18.5621 -7.1250 0.0000 -0.0000 -0.5108 67.1615 -0.2725 -0.0000 0.0000 0.0000 13.4461 5.3739 -49.5382 -16.6654 26.4146 -3.9373 0.0000 -0.0000 -3.9205 -41.8580 -5.6678 5.0565 7.1250 -0.0000 -0.0000 -12.8724 -37.2864 -2.4937
